<?xml version="1.0" encoding="utf-8"?>
<svg viewBox="188.423 92.509 47.673 48.24" xmlns="http://www.w3.org/2000/svg">
  <defs>
    <clipPath id="clip0_714_325">
      <rect width="146" height="39" fill="white"/>
    </clipPath>
    <clipPath id="clip1_714_325">
      <rect width="145.727" height="38.931" fill="white" transform="translate(0.136719 0.0341797)"/>
    </clipPath>
    <clipPath id="clip2_714_325">
      <rect width="145.727" height="38.931" fill="white" transform="translate(0.136719 0.0341797)"/>
    </clipPath>
    <clipPath id="clip3_714_325">
      <rect width="105.896" height="28.17" fill="white" transform="translate(39.9678 5.41504)"/>
    </clipPath>
    <clipPath id="clip4_714_325">
      <rect width="105.896" height="28.17" fill="white" transform="translate(39.9678 5.41504)"/>
    </clipPath>
    <clipPath id="clip5_714_325">
      <rect width="105.896" height="28.17" fill="white" transform="translate(39.9678 5.41504)"/>
    </clipPath>
    <clipPath id="clip6_714_325">
      <rect width="105.896" height="28.17" fill="white" transform="translate(39.9678 5.41504)"/>
    </clipPath>
    <clipPath id="clip7_714_325">
      <rect width="33.1714" height="38.931" fill="white" transform="translate(0.136719 0.0341797)"/>
    </clipPath>
    <clipPath id="clip8_714_325">
      <rect width="33.1714" height="38.931" fill="white" transform="translate(0.136719 0.0341797)"/>
    </clipPath>
  </defs>
  <g clip-path="url(#clip0_714_325)" transform="matrix(1, 0, 0, 1, 192.607452, 95.710312)">
    <g clip-path="url(#clip1_714_325)">
      <g clip-path="url(#clip2_714_325)">
        <g clip-path="url(#clip3_714_325)">
          <g clip-path="url(#clip4_714_325)">
            <g clip-path="url(#clip5_714_325)">
              <g clip-path="url(#clip6_714_325)"/>
            </g>
          </g>
        </g>
        <g clip-path="url(#clip7_714_325)">
          <g clip-path="url(#clip8_714_325)">
            <path d="M13.0909 15.3007C14.7073 13.6812 14.7217 11.0798 13.1354 9.44193C14.7217 7.80681 14.7034 5.19918 13.0874 3.58897C11.4711 1.97137 8.86365 1.96242 7.22895 3.54109C5.59192 1.96242 2.98061 1.97487 1.35878 3.58897C-0.257596 5.20307 -0.270071 7.81187 1.31862 9.44348C-0.262664 11.0813 -0.248629 13.687 1.36463 15.3027C2.83324 16.7642 5.10654 16.9101 6.74123 15.7539L7.22973 15.4323L7.71316 15.748C9.35215 16.9098 11.6313 16.7645 13.0909 15.3007ZM9.23714 11.4469C8.12681 12.5553 6.32798 12.5553 5.2196 11.4469C4.11316 10.3416 4.11316 8.5465 5.2196 7.43968C6.32798 6.33325 8.1272 6.33325 9.23714 7.43968C10.3467 8.54456 10.3467 10.3416 9.23714 11.4469Z" fill="#522D80"/>
            <path d="M32.8869 34.2397H28.5758C31.0803 31.5386 32.4514 28.0854 32.4514 24.4177C32.4514 19.487 30.0089 14.9815 25.897 12.2784L30.2627 4.73898C30.3196 4.64165 30.3345 4.52602 30.3021 4.41429C30.2756 4.30801 30.2042 4.21691 30.1107 4.15812L29.7606 3.95957L30.6725 2.36688C30.791 2.16717 30.7208 1.90944 30.5157 1.7942L27.5637 0.0913401C27.4647 0.032943 27.354 0.0204849 27.244 0.0485155C27.1372 0.0773248 27.0386 0.147791 26.9851 0.245898L26.0662 1.83274L25.6846 1.60772C25.5867 1.55088 25.4674 1.53648 25.361 1.56334C25.2483 1.59643 25.1559 1.66417 25.1013 1.76189L13.8764 21.1751C13.7571 21.3748 13.8335 21.6364 14.0323 21.7516L14.6456 22.104L13.4639 24.1424C13.4109 24.2413 13.3968 24.3565 13.4253 24.4648C13.4503 24.571 13.5212 24.6657 13.6206 24.7221L16.0896 26.1443C16.1855 26.1992 16.3029 26.2175 16.4093 26.1851C16.5196 26.1567 16.6081 26.0839 16.6655 25.9878L17.8425 23.9505L18.4596 24.3028C18.5582 24.3573 18.6729 24.376 18.7797 24.3452C18.8861 24.316 18.9844 24.2425 19.0389 24.1451L23.5341 16.3775C26.166 18.2186 27.72 21.193 27.72 24.4177C27.72 29.8338 23.3064 34.2397 17.8748 34.2397H9.60971C9.36955 34.2397 9.17969 34.4297 9.17969 34.664V38.5451C9.17969 38.7756 9.36955 38.9652 9.60971 38.9652H32.8869C33.1228 38.9652 33.3079 38.7756 33.3079 38.5451V34.664C33.3079 34.43 33.1228 34.2397 32.8869 34.2397Z" fill="#522D80"/>
            <path d="M17.8909 31.9766C18.043 31.9766 18.1849 31.9023 18.2629 31.7668L19.1989 30.1398C19.25 30.0491 19.2714 29.9331 19.2387 29.8221C19.2169 29.7143 19.1436 29.6224 19.0434 29.5671L9.57476 24.1012C9.37554 23.9859 9.11277 24.0568 8.99737 24.2588L8.05624 25.8796C8.00322 25.9784 7.98489 26.0968 8.01569 26.2027C8.04688 26.309 8.11784 26.4032 8.21569 26.4581L17.6827 31.9229C17.7537 31.9587 17.8247 31.9766 17.8909 31.9766Z" fill="#522D80"/>
          </g>
        </g>
      </g>
    </g>
  </g>
</svg>