<svg width="146" height="39" viewBox="0 0 146 39" fill="none" xmlns="http://www.w3.org/2000/svg">
<g clip-path="url(#clip0_714_325)">
<g clip-path="url(#clip1_714_325)">
<g clip-path="url(#clip2_714_325)">
<g clip-path="url(#clip3_714_325)">
<g clip-path="url(#clip4_714_325)">
<g clip-path="url(#clip5_714_325)">
<g clip-path="url(#clip6_714_325)">
<path d="M39.9678 32.9308V6.03007H42.3308V30.7284H55.9971V32.9308H39.9678ZM60.4475 32.9308V13.2272H62.8105V32.9308H60.4475ZM61.5502 10.7102C61.1039 10.7102 60.7153 10.545 60.3844 10.2146C60.0589 9.88951 59.8961 9.50409 59.8961 9.05837C59.8961 8.58642 60.0589 8.18527 60.3844 7.85491C60.7153 7.5298 61.1039 7.36724 61.5502 7.36724C62.0228 7.36724 62.4219 7.5298 62.7475 7.85491C63.0783 8.18527 63.2437 8.58642 63.2437 9.05837C63.2437 9.50409 63.0783 9.88951 62.7475 10.2146C62.4219 10.545 62.0228 10.7102 61.5502 10.7102ZM92.6163 19.0871V22.0761C92.6163 24.2785 92.0991 26.2371 91.0646 27.9518C90.0301 29.6718 88.6385 31.0037 86.8899 31.9476C85.1465 32.8915 83.2508 33.3634 81.2028 33.3634C78.5247 33.3634 76.2063 32.8049 74.2476 31.688C72.2942 30.5763 70.7976 29.0032 69.7578 26.9686C68.7233 24.9392 68.2061 22.6005 68.2061 19.9524C68.2061 17.278 68.8021 14.8397 69.9941 12.6373C71.1914 10.4349 72.8324 8.69654 74.9171 7.4223C77.0071 6.1533 79.3124 5.5188 81.833 5.5188C83.277 5.5188 84.6817 5.76001 86.0471 6.24244C87.4071 6.73012 88.523 7.41968 89.3947 8.31112C90.2611 9.20257 90.6944 10.2513 90.6944 11.4574L88.5676 11.4967C88.5676 10.6839 88.2053 9.99439 87.4806 9.42806C86.7612 8.86697 85.8685 8.44222 84.8025 8.15381C83.7418 7.8654 82.7257 7.7212 81.7542 7.7212C79.6537 7.7212 77.7502 8.27179 76.0435 9.37299C74.3369 10.4742 72.9978 11.9556 72.0263 13.8171C71.0549 15.6787 70.5691 17.7238 70.5691 19.9524C70.5691 22.181 70.9892 24.1396 71.8294 25.8281C72.6696 27.5218 73.9037 28.8328 75.5315 29.7609C77.1594 30.6943 79.1023 31.161 81.3604 31.161C82.8832 31.161 84.3404 30.7808 85.732 30.0205C87.1235 29.2601 88.2447 28.2245 89.0954 26.9135C89.9513 25.6026 90.3793 24.1474 90.3793 22.5481V21.2895H80.809V19.0871H92.6163ZM111.048 33.2454C110.549 32.8521 110.15 32.4195 109.851 31.9476C109.546 31.4756 109.263 30.8595 109 30.0991C108.475 31.1217 107.695 31.9135 106.661 32.4746C105.621 33.0409 104.366 33.3241 102.896 33.3241C100.821 33.3241 99.1619 32.7735 97.9174 31.6723C96.6676 30.5711 96.0427 29.0766 96.0427 27.1888C96.0427 25.1962 96.7464 23.6493 98.1537 22.5481C99.5558 21.4469 101.543 20.8963 104.116 20.8963H108.685V19.4804C108.685 17.9073 108.344 16.7405 107.661 15.9802C106.978 15.2198 105.928 14.8397 104.51 14.8397C103.46 14.8397 102.384 15.0284 101.281 15.406C100.178 15.7888 99.1934 16.3079 98.327 16.9634L97.2636 15.2329C98.2351 14.4202 99.3588 13.7961 100.635 13.3609C101.906 12.9309 103.211 12.7159 104.55 12.7159C106.676 12.7159 108.291 13.2587 109.394 14.3441C110.497 15.4348 111.048 17.0027 111.048 19.0478V27.2675C111.048 29.2863 111.56 30.8464 112.584 31.9476L111.048 33.2454ZM102.935 31.2003C104.694 31.2003 106.094 30.7153 107.133 29.7452C108.168 28.7751 108.685 27.5166 108.685 25.9696V23.02H104.668C102.436 23.02 100.834 23.3399 99.863 23.9796C98.8915 24.6246 98.4058 25.6812 98.4058 27.1495C98.4058 28.4604 98.7996 29.462 99.5873 30.1542C100.375 30.8516 101.491 31.2003 102.935 31.2003ZM122.588 33.4814C120.697 33.4814 119.287 32.9832 118.358 31.9869C117.423 30.9906 116.956 29.4174 116.956 27.2675V8.35045H119.319V13.2665H125.502V15.3903H119.319V27.2675C119.319 28.9193 119.628 30.0126 120.248 30.5475C120.863 31.0876 121.629 31.3576 122.548 31.3576C123.1 31.3576 123.559 31.3236 123.927 31.2554C124.294 31.1925 124.701 31.0299 125.147 30.7677L126.211 32.5768C125.239 33.1799 124.032 33.4814 122.588 33.4814ZM131.252 23.9246C131.278 25.7599 131.725 27.4379 132.591 28.9586C133.458 30.4793 135.19 31.2397 137.79 31.2397C138.919 31.2397 139.961 31.0955 140.917 30.807C141.878 30.5186 142.923 30.0467 144.052 29.3912L145.076 31.043C144.026 31.7509 142.857 32.3146 141.571 32.7341C140.284 33.1537 138.971 33.3634 137.632 33.3634C134.875 33.3634 132.728 32.4772 131.189 30.7048C129.656 28.9376 128.889 26.612 128.889 23.7279C128.889 21.8664 129.23 20.1149 129.913 18.4736C130.596 16.8376 131.606 15.5082 132.946 14.4857C134.285 13.4632 135.86 12.9519 137.672 12.9519C139.194 12.9519 140.578 13.3111 141.823 14.0295C143.072 14.7531 144.057 15.7364 144.776 16.9791C145.501 18.2272 145.863 19.6115 145.863 21.1322C145.863 21.5517 145.85 21.924 145.824 22.2492C145.798 22.5795 145.772 22.8627 145.745 23.0987L145.667 23.9246H131.252ZM131.37 21.8008H143.461C143.487 21.6173 143.5 21.3551 143.5 21.0142C143.5 19.913 143.238 18.9089 142.713 18.0017C142.188 17.0997 141.479 16.3866 140.586 15.8622C139.693 15.3378 138.709 15.0756 137.632 15.0756C136.031 15.0756 134.657 15.6577 133.513 16.8218C132.373 17.9912 131.659 19.6509 131.37 21.8008Z" fill="#311249"/>
</g>
</g>
</g>
</g>
<g clip-path="url(#clip7_714_325)">
<g clip-path="url(#clip8_714_325)">
<path d="M13.0909 15.3007C14.7073 13.6812 14.7217 11.0798 13.1354 9.44193C14.7217 7.80681 14.7034 5.19918 13.0874 3.58897C11.4711 1.97137 8.86365 1.96242 7.22895 3.54109C5.59192 1.96242 2.98061 1.97487 1.35878 3.58897C-0.257596 5.20307 -0.270071 7.81187 1.31862 9.44348C-0.262664 11.0813 -0.248629 13.687 1.36463 15.3027C2.83324 16.7642 5.10654 16.9101 6.74123 15.7539L7.22973 15.4323L7.71316 15.748C9.35215 16.9098 11.6313 16.7645 13.0909 15.3007ZM9.23714 11.4469C8.12681 12.5553 6.32798 12.5553 5.2196 11.4469C4.11316 10.3416 4.11316 8.5465 5.2196 7.43968C6.32798 6.33325 8.1272 6.33325 9.23714 7.43968C10.3467 8.54456 10.3467 10.3416 9.23714 11.4469Z" fill="#522D80"/>
<path d="M32.8869 34.2397H28.5758C31.0803 31.5386 32.4514 28.0854 32.4514 24.4177C32.4514 19.487 30.0089 14.9815 25.897 12.2784L30.2627 4.73898C30.3196 4.64165 30.3345 4.52602 30.3021 4.41429C30.2756 4.30801 30.2042 4.21691 30.1107 4.15812L29.7606 3.95957L30.6725 2.36688C30.791 2.16717 30.7208 1.90944 30.5157 1.7942L27.5637 0.0913401C27.4647 0.032943 27.354 0.0204849 27.244 0.0485155C27.1372 0.0773248 27.0386 0.147791 26.9851 0.245898L26.0662 1.83274L25.6846 1.60772C25.5867 1.55088 25.4674 1.53648 25.361 1.56334C25.2483 1.59643 25.1559 1.66417 25.1013 1.76189L13.8764 21.1751C13.7571 21.3748 13.8335 21.6364 14.0323 21.7516L14.6456 22.104L13.4639 24.1424C13.4109 24.2413 13.3968 24.3565 13.4253 24.4648C13.4503 24.571 13.5212 24.6657 13.6206 24.7221L16.0896 26.1443C16.1855 26.1992 16.3029 26.2175 16.4093 26.1851C16.5196 26.1567 16.6081 26.0839 16.6655 25.9878L17.8425 23.9505L18.4596 24.3028C18.5582 24.3573 18.6729 24.376 18.7797 24.3452C18.8861 24.316 18.9844 24.2425 19.0389 24.1451L23.5341 16.3775C26.166 18.2186 27.72 21.193 27.72 24.4177C27.72 29.8338 23.3064 34.2397 17.8748 34.2397H9.60971C9.36955 34.2397 9.17969 34.4297 9.17969 34.664V38.5451C9.17969 38.7756 9.36955 38.9652 9.60971 38.9652H32.8869C33.1228 38.9652 33.3079 38.7756 33.3079 38.5451V34.664C33.3079 34.43 33.1228 34.2397 32.8869 34.2397Z" fill="#522D80"/>
<path d="M17.8909 31.9766C18.043 31.9766 18.1849 31.9023 18.2629 31.7668L19.1989 30.1398C19.25 30.0491 19.2714 29.9331 19.2387 29.8221C19.2169 29.7143 19.1436 29.6224 19.0434 29.5671L9.57476 24.1012C9.37554 23.9859 9.11277 24.0568 8.99737 24.2588L8.05624 25.8796C8.00322 25.9784 7.98489 26.0968 8.01569 26.2027C8.04688 26.309 8.11784 26.4032 8.21569 26.4581L17.6827 31.9229C17.7537 31.9587 17.8247 31.9766 17.8909 31.9766Z" fill="#522D80"/>
</g>
</g>
</g>
</g>
</g>
<defs>
<clipPath id="clip0_714_325">
<rect width="146" height="39" fill="white"/>
</clipPath>
<clipPath id="clip1_714_325">
<rect width="145.727" height="38.931" fill="white" transform="translate(0.136719 0.0341797)"/>
</clipPath>
<clipPath id="clip2_714_325">
<rect width="145.727" height="38.931" fill="white" transform="translate(0.136719 0.0341797)"/>
</clipPath>
<clipPath id="clip3_714_325">
<rect width="105.896" height="28.17" fill="white" transform="translate(39.9678 5.41504)"/>
</clipPath>
<clipPath id="clip4_714_325">
<rect width="105.896" height="28.17" fill="white" transform="translate(39.9678 5.41504)"/>
</clipPath>
<clipPath id="clip5_714_325">
<rect width="105.896" height="28.17" fill="white" transform="translate(39.9678 5.41504)"/>
</clipPath>
<clipPath id="clip6_714_325">
<rect width="105.896" height="28.17" fill="white" transform="translate(39.9678 5.41504)"/>
</clipPath>
<clipPath id="clip7_714_325">
<rect width="33.1714" height="38.931" fill="white" transform="translate(0.136719 0.0341797)"/>
</clipPath>
<clipPath id="clip8_714_325">
<rect width="33.1714" height="38.931" fill="white" transform="translate(0.136719 0.0341797)"/>
</clipPath>
</defs>
</svg>
