<svg width="274" height="74" viewBox="0 0 274 74" fill="none" xmlns="http://www.w3.org/2000/svg">
<g clip-path="url(#clip0_698_667)">
<g clip-path="url(#clip1_698_667)">
<g clip-path="url(#clip2_698_667)">
<g clip-path="url(#clip3_698_667)">
<g clip-path="url(#clip4_698_667)">
<path d="M74.8692 62.4128V11.7912H79.3097V58.2684H104.991V62.4128H74.8692ZM113.353 62.4128V25.3347H117.794V62.4128H113.353ZM115.426 20.5982C114.587 20.5982 113.857 20.2874 113.235 19.6657C112.623 19.0539 112.317 18.3286 112.317 17.4898C112.317 16.6017 112.623 15.8469 113.235 15.2252C113.857 14.6134 114.587 14.3075 115.426 14.3075C116.314 14.3075 117.064 14.6134 117.676 15.2252C118.297 15.8469 118.608 16.6017 118.608 17.4898C118.608 18.3286 118.297 19.0539 117.676 19.6657C117.064 20.2874 116.314 20.5982 115.426 20.5982ZM173.803 36.3619V41.9866C173.803 46.131 172.831 49.8166 170.887 53.0434C168.944 56.28 166.329 58.7864 163.043 60.5626C159.767 62.3388 156.204 63.2269 152.356 63.2269C147.323 63.2269 142.967 62.176 139.286 60.0742C135.615 57.9822 132.803 55.0219 130.849 51.1932C128.905 47.3744 127.933 42.9733 127.933 37.9901C127.933 32.9576 129.053 28.3691 131.293 24.2246C133.543 20.0801 136.627 16.809 140.544 14.4111C144.471 12.0231 148.803 10.8291 153.54 10.8291C156.254 10.8291 158.893 11.283 161.459 12.1909C164.015 13.1086 166.111 14.4062 167.75 16.0837C169.378 17.7612 170.192 19.7348 170.192 22.0043L166.195 22.0784C166.195 20.5488 165.514 19.2512 164.153 18.1855C162.801 17.1297 161.123 16.3304 159.12 15.7877C157.127 15.2449 155.217 14.9736 153.392 14.9736C149.445 14.9736 145.868 16.0097 142.661 18.0819C139.454 20.1541 136.937 22.9418 135.112 26.4448C133.286 29.9479 132.374 33.7963 132.374 37.9901C132.374 42.1839 133.163 45.8695 134.742 49.047C136.321 52.2342 138.64 54.7012 141.699 56.4478C144.758 58.2042 148.409 59.0825 152.652 59.0825C155.514 59.0825 158.252 58.3671 160.867 56.9362C163.482 55.5054 165.589 53.5565 167.187 51.0896C168.796 48.6226 169.6 45.8843 169.6 42.8747V40.5064H151.616V36.3619H173.803ZM208.439 63.0049C207.502 62.2648 206.752 61.4507 206.189 60.5626C205.617 59.6745 205.084 58.5151 204.591 57.0842C203.604 59.0085 202.139 60.4985 200.195 61.5543C198.241 62.6201 195.883 63.1529 193.12 63.1529C189.222 63.1529 186.104 62.1168 183.765 60.0446C181.416 57.9723 180.242 55.16 180.242 51.6076C180.242 47.8579 181.564 44.9469 184.209 42.8747C186.844 40.8024 190.579 39.7663 195.414 39.7663H203.999V37.102C203.999 34.1417 203.357 31.9461 202.075 30.5153C200.792 29.0845 198.818 28.3691 196.154 28.3691C194.18 28.3691 192.157 28.7243 190.085 29.4348C188.013 30.1551 186.163 31.132 184.535 32.3655L182.536 29.1091C184.362 27.5796 186.474 26.4054 188.871 25.5863C191.259 24.7772 193.712 24.3726 196.228 24.3726C200.224 24.3726 203.259 25.3939 205.331 27.4365C207.403 29.489 208.439 32.4395 208.439 36.2879V51.7556C208.439 55.5547 209.401 58.4904 211.326 60.5626L208.439 63.0049ZM193.194 59.1565C196.499 59.1565 199.129 58.2437 201.083 56.4182C203.027 54.5926 203.999 52.2244 203.999 49.3134V43.7628H196.45C192.256 43.7628 189.246 44.3647 187.421 45.5686C185.595 46.7823 184.683 48.7707 184.683 51.5336C184.683 54.0006 185.423 55.8853 186.903 57.1879C188.383 58.5003 190.48 59.1565 193.194 59.1565ZM230.124 63.449C226.571 63.449 223.922 62.5115 222.175 60.6366C220.419 58.7618 219.54 55.8014 219.54 51.7556V16.1577H223.981V25.4087H235.6V29.4052H223.981V51.7556C223.981 54.864 224.563 56.9214 225.728 57.9279C226.882 58.9443 228.323 59.4525 230.05 59.4525C231.086 59.4525 231.949 59.3884 232.64 59.2601C233.331 59.1417 234.095 58.8358 234.934 58.3424L236.932 61.7468C235.107 62.8816 232.837 63.449 230.124 63.449ZM246.406 45.465C246.455 48.9187 247.294 52.0764 248.922 54.938C250.55 57.7997 253.806 59.2305 258.691 59.2305C260.812 59.2305 262.771 58.9591 264.567 58.4164C266.373 57.8737 268.337 56.9856 270.458 55.7521L272.382 58.8604C270.409 60.1926 268.213 61.2534 265.796 62.0428C263.378 62.8322 260.911 63.2269 258.395 63.2269C253.214 63.2269 249.178 61.5593 246.287 58.224C243.406 54.8985 241.965 50.5222 241.965 45.0949C241.965 41.5919 242.606 38.296 243.889 35.2074C245.172 32.1287 247.072 29.6272 249.588 27.703C252.104 25.7788 255.064 24.8167 258.469 24.8167C261.33 24.8167 263.931 25.4926 266.269 26.8445C268.618 28.2062 270.468 30.0564 271.82 32.3951C273.182 34.7436 273.863 37.3487 273.863 40.2104C273.863 40.9998 273.838 41.7004 273.789 42.3122C273.739 42.9339 273.69 43.4667 273.641 43.9108L273.493 45.465H246.406ZM246.628 41.4685H269.348C269.397 41.1231 269.422 40.6297 269.422 39.9883C269.422 37.9161 268.929 36.0264 267.942 34.3193C266.955 32.6221 265.623 31.28 263.945 30.2933C262.268 29.3065 260.418 28.8131 258.395 28.8131C255.385 28.8131 252.805 29.9084 250.654 32.0991C248.512 34.2996 247.17 37.4227 246.628 41.4685Z" fill="#124948"/>
</g>
</g>
</g>
</g>
<g clip-path="url(#clip5_698_667)">
<g clip-path="url(#clip6_698_667)">
<path d="M24.3639 29.2374C27.4013 26.1898 27.4284 21.2945 24.4474 18.2124C27.4284 15.1354 27.3939 10.2284 24.3573 7.19834C21.3199 4.15434 16.4202 4.1375 13.3483 7.10823C10.2721 4.1375 5.36508 4.16094 2.31742 7.19834C-0.719978 10.2357 -0.743421 15.145 2.24196 18.2153C-0.729502 21.2974 -0.703128 26.2008 2.32841 29.2411C5.08815 31.9913 9.36 32.2661 12.4318 30.0902L13.3498 29.4851L14.2582 30.0792C17.3381 32.2653 21.621 31.9921 24.3639 29.2374ZM17.122 21.9853C15.0355 24.0711 11.6553 24.0711 9.57246 21.9853C7.49331 19.9055 7.49331 16.5274 9.57246 14.4446C11.6553 12.3625 15.0363 12.3625 17.122 14.4446C19.207 16.5237 19.207 19.9055 17.122 21.9853Z" fill="#522D80"/>
<path d="M61.5636 64.8767H53.4624C58.1686 59.7939 60.7452 53.2956 60.7452 46.3937C60.7452 37.1152 56.1554 28.6367 48.4286 23.5502L56.6324 9.3625C56.7393 9.17934 56.7672 8.96176 56.7064 8.7515C56.6565 8.5515 56.5225 8.38007 56.3466 8.26944L55.6888 7.89581L57.4023 4.8987C57.625 4.52287 57.4932 4.03789 57.1078 3.82103L51.5605 0.616597C51.3744 0.506706 51.1664 0.483262 50.9598 0.53601C50.759 0.590223 50.5737 0.722826 50.4733 0.907444L48.7466 3.89356L48.0293 3.47011C47.8454 3.36315 47.6213 3.33605 47.4213 3.3866C47.2095 3.44887 47.0359 3.57634 46.9333 3.76023L25.84 40.2918C25.6159 40.6677 25.7594 41.16 26.1331 41.3768L27.2855 42.0398L25.0649 45.8758C24.9653 46.0619 24.9389 46.2787 24.9924 46.4824C25.0393 46.6824 25.1726 46.8604 25.3594 46.9666L29.9991 49.6429C30.1793 49.7462 30.3998 49.7806 30.5998 49.7198C30.8071 49.6663 30.9734 49.5293 31.0811 49.3483L33.2929 45.5146L34.4526 46.1776C34.6379 46.2802 34.8533 46.3153 35.0541 46.2575C35.2541 46.2025 35.4387 46.0641 35.5413 45.8809L43.9882 31.2639C48.9341 34.7284 51.8543 40.3255 51.8543 46.3937C51.8543 56.5858 43.5604 64.8767 33.3537 64.8767H17.8224C17.3711 64.8767 17.0143 65.2343 17.0143 65.6753V72.9787C17.0143 73.4124 17.3711 73.7692 17.8224 73.7692H61.5636C62.0068 73.7692 62.3548 73.4124 62.3548 72.9787V65.6753C62.3548 65.235 62.0068 64.8767 61.5636 64.8767Z" fill="#522D80"/>
<path d="M33.3837 60.6188C33.6694 60.6188 33.9361 60.4789 34.0826 60.2239L35.8416 57.1623C35.9376 56.9916 35.9779 56.7733 35.9163 56.5645C35.8753 56.3616 35.7376 56.1887 35.5493 56.0847L17.7564 45.7988C17.382 45.582 16.8883 45.7153 16.6714 46.0955L14.9029 49.1454C14.8033 49.3315 14.7688 49.5542 14.8267 49.7535C14.8853 49.9535 15.0186 50.1308 15.2025 50.2341L32.9925 60.5177C33.1258 60.5851 33.2592 60.6188 33.3837 60.6188Z" fill="#522D80"/>
</g>
</g>
</g>
<defs>
<clipPath id="clip0_698_667">
<rect width="273.842" height="73.2601" fill="white" transform="translate(0.0209351 0.509033)"/>
</clipPath>
<clipPath id="clip1_698_667">
<rect width="198.993" height="53.0102" fill="white" transform="translate(74.8692 10.6339)"/>
</clipPath>
<clipPath id="clip2_698_667">
<rect width="198.993" height="53.0102" fill="white" transform="translate(74.8692 10.6339)"/>
</clipPath>
<clipPath id="clip3_698_667">
<rect width="198.993" height="53.0102" fill="white" transform="translate(74.8692 10.6339)"/>
</clipPath>
<clipPath id="clip4_698_667">
<rect width="198.993" height="53.0102" fill="white" transform="translate(74.8692 10.6339)"/>
</clipPath>
<clipPath id="clip5_698_667">
<rect width="62.3338" height="73.2601" fill="white" transform="translate(0.0209351 0.509033)"/>
</clipPath>
<clipPath id="clip6_698_667">
<rect width="62.3338" height="73.2601" fill="white" transform="translate(0.0209351 0.509033)"/>
</clipPath>
</defs>
</svg>
