<svg width="111" height="112" viewBox="0 0 111 112" fill="none" xmlns="http://www.w3.org/2000/svg">
<g clip-path="url(#clip0_727_256)">
<path d="M55.227 98.0452L74.3331 93.2203C85.2387 84.1646 92.185 70.5057 92.185 55.2228C92.185 31.6496 75.663 11.9355 53.5671 7.02832C27.7011 7.90065 7 29.1441 7 55.2226C7 68.6178 12.4627 80.7363 21.2806 89.4748L55.227 98.0452Z" fill="#522D80" fill-opacity="0.29"/>
<path d="M91.1846 55.2223C91.1846 71.0293 83.578 85.0582 71.8269 93.8528L89.1626 89.4749C97.9811 80.7365 103.445 68.618 103.445 55.2223C103.445 28.5899 81.8549 7 55.2224 7C53.1458 7 51.0997 7.13148 49.0923 7.38616C72.8303 10.3978 91.1846 30.6666 91.1846 55.2223Z" fill="#522D80" fill-opacity="0.29"/>
<path d="M67.2069 25.2624C67.2069 22.7995 65.2103 20.803 62.7474 20.803H47.38C41.7118 20.803 37.1167 25.398 37.1167 31.0662V42.4612H73.3228V31.2279C73.3228 28.7649 71.3263 26.7684 68.8634 26.7684H68.7131C67.8812 26.7684 67.2069 26.0942 67.2069 25.2624Z" fill="#522D80"/>
<path d="M68.8629 26.7684H68.7126C67.8808 26.7684 67.2064 26.094 67.2064 25.2622C67.2064 22.7993 65.2099 20.8027 62.747 20.8027H61.062V42.461H73.3222V31.2276C73.3224 28.7651 71.3257 26.7684 68.8629 26.7684Z" fill="#522D80"/>
<path d="M87.0652 77.1397C85.8862 75.9752 84.4278 75.0746 82.7722 74.5506L69.607 70.3823L55.2254 69.877L40.8378 70.3823L27.6726 74.5506C23.2188 75.9607 20.1919 80.0939 20.1919 84.7656V88.3623C28.6287 97.2774 40.4323 102.974 53.5676 103.417C68.2844 100.148 80.5286 90.3108 87.0652 77.1397Z" fill="#522D80"/>
<path d="M90.2528 88.3616V84.7649C90.2528 81.4616 88.7383 78.4291 86.2773 76.4365C79.2867 90.6821 65.4773 100.975 49.1035 103.056C51.0799 103.307 53.0928 103.44 55.1362 103.444C57.0996 103.441 59.0369 103.327 60.9425 103.108C72.4388 101.749 82.6962 96.3467 90.2528 88.3616Z" fill="#522D80"/>
<path d="M56.3142 102.723C59.2319 96.93 66.8294 80.4824 64.6629 70.2084L55.2255 66.5354L45.7792 70.2086C43.5459 80.7996 51.6883 97.9509 54.384 103.228C55.0324 103.072 55.6761 102.904 56.3142 102.723Z" fill="#E4F6FF"/>
<path d="M61.2871 98.1303L57.4606 83.0764H52.9836L49.1665 98.0892L53.8866 103.344C55.0849 103.07 56.2665 102.752 57.4299 102.392L61.2871 98.1303Z" fill="#E28086"/>
<path d="M53.9606 103.426C54.3515 103.437 54.7431 103.444 55.1362 103.444C55.5911 103.444 56.0445 103.436 56.4966 103.423L58.9279 100.737C57.0143 101.408 55.0456 101.963 53.0303 102.391L53.9606 103.426Z" fill="#DD636E"/>
<path d="M63.2798 68.8191V60.3301H47.1592V68.8191C47.1592 73.2706 55.2195 78.1332 55.2195 78.1332C55.2195 78.1332 63.2798 73.2706 63.2798 68.8191Z" fill="#FFDDCE"/>
<path d="M73.3223 40.9656H70.2408C68.527 40.9656 67.1378 39.5764 67.1378 37.8626V36.1645C67.1378 33.9321 64.9537 32.3538 62.8342 33.0543C57.8908 34.6882 52.5532 34.6886 47.6097 33.0554L47.6038 33.0535C45.4843 32.3534 43.3005 33.9317 43.3005 36.1639V37.8628C43.3005 39.5766 41.9113 40.9658 40.1975 40.9658H37.1162V46.04C37.1162 47.3366 38.1673 48.3879 39.464 48.3879C39.8732 48.3879 40.206 48.7083 40.2318 49.1167C40.7269 56.9656 47.2457 63.1791 55.2194 63.1791C63.193 63.1791 69.7119 56.9656 70.2069 49.1167C70.2327 48.7085 70.5656 48.3879 70.9747 48.3879C72.2712 48.3879 73.3225 47.3368 73.3225 46.04V40.9656H73.3223Z" fill="#FFDDCE"/>
<path d="M70.2407 40.966C68.5269 40.966 67.1377 39.5767 67.1377 37.863V36.1648C67.1377 33.9325 64.9535 32.3541 62.834 33.0547C62.2486 33.2481 61.6573 33.4169 61.062 33.5646V50.3241C60.9795 55.777 57.9916 60.5228 53.5791 63.0876C54.118 63.1462 54.6647 63.1791 55.219 63.1791C63.1927 63.1791 69.7115 56.9656 70.2066 49.1167C70.2324 48.7085 70.5652 48.3879 70.9744 48.3879C72.2709 48.3879 73.3222 47.3368 73.3222 46.04V40.9658H70.2407V40.966Z" fill="#FFCBBE"/>
<path d="M47.1592 66.5354L40.8379 71.6716L47.4669 79.8681C48.2734 80.6532 49.5426 80.7015 50.4064 79.98L55.3916 75.8157L47.1592 66.5354Z" fill="#F4FBFF"/>
<path d="M63.2827 66.5354L55.3916 75.8157L60.0771 79.822C60.9355 80.5559 62.2107 80.5189 63.0252 79.7366L69.6068 71.6716L63.2827 66.5354Z" fill="#F4FBFF"/>
<path d="M47.1589 66.5354L37.8807 71.0937C37.1743 71.4407 36.8906 72.3 37.2513 72.9995L39.0691 76.5238C39.5402 77.437 39.3663 78.5499 38.6392 79.2759C38.2649 79.6494 37.8596 80.054 37.5082 80.4048C36.8795 81.0324 36.6536 81.9598 36.9305 82.804C39.1252 89.4943 49.6878 99.7248 53.6851 103.426C53.9539 103.433 54.2233 103.438 54.4932 103.441C51.5944 97.8029 41.3221 76.3812 47.1589 66.5354Z" fill="#522D80"/>
<path d="M71.8023 79.2757C71.075 78.5497 70.9013 77.4369 71.3724 76.5236L73.1902 72.9993C73.5509 72.2999 73.2672 71.4405 72.5608 71.0935L63.2826 66.5354C69.1178 76.3786 58.8527 97.7912 55.9507 103.437C56.2234 103.432 56.4956 103.425 56.7673 103.416C60.7729 99.7063 71.3184 89.4883 73.511 82.8042C73.7879 81.96 73.562 81.0326 72.9332 80.405C72.5819 80.054 72.1766 79.6492 71.8023 79.2757Z" fill="#522D80"/>
<path d="M55.3913 75.8154L50.4824 79.9151L52.9836 83.0761H57.4605L59.9619 79.7286L55.3913 75.8154Z" fill="#DD636E"/>
</g>
<circle cx="55.2224" cy="55.2224" r="54.2224" stroke="white" stroke-width="2"/>
<circle cx="86.7225" cy="98.3895" r="13.6111" fill="white"/>
<path d="M89.5 89.5C86.7256 89.5335 84.0743 90.6505 82.1124 92.6124C80.1505 94.5743 79.0335 97.2256 79 100C79.0335 102.774 80.1505 105.426 82.1124 107.388C84.0743 109.35 86.7256 110.467 89.5 110.5C92.2744 110.467 94.9257 109.35 96.8876 107.388C98.8495 105.426 99.9665 102.774 100 100C99.9665 97.2256 98.8495 94.5743 96.8876 92.6124C94.9257 90.6505 92.2744 89.5335 89.5 89.5ZM95.5 100.75H90.25V106H88.75V100.75H83.5V99.25H88.75V94H90.25V99.25H95.5V100.75Z" fill="black" fill-opacity="0.76"/>
<defs>
<clipPath id="clip0_727_256">
<rect width="96.4447" height="96.4447" fill="white" transform="translate(7 7)"/>
</clipPath>
</defs>
</svg>
