<svg width="29" height="28" viewBox="0 0 29 28" fill="none" xmlns="http://www.w3.org/2000/svg">
<path d="M14.5001 4.66699C15.7378 4.66699 16.9247 5.15866 17.7999 6.03383C18.6751 6.909 19.1667 8.09598 19.1667 9.33366C19.1667 10.5713 18.6751 11.7583 17.7999 12.6335C16.9247 13.5087 15.7378 14.0003 14.5001 14.0003C13.2624 14.0003 12.0754 13.5087 11.2002 12.6335C10.3251 11.7583 9.83341 10.5713 9.83341 9.33366C9.83341 8.09598 10.3251 6.909 11.2002 6.03383C12.0754 5.15866 13.2624 4.66699 14.5001 4.66699ZM14.5001 7.00033C13.8812 7.00033 13.2878 7.24616 12.8502 7.68374C12.4126 8.12133 12.1667 8.71482 12.1667 9.33366C12.1667 9.9525 12.4126 10.546 12.8502 10.9836C13.2878 11.4212 13.8812 11.667 14.5001 11.667C15.1189 11.667 15.7124 11.4212 16.15 10.9836C16.5876 10.546 16.8334 9.9525 16.8334 9.33366C16.8334 8.71482 16.5876 8.12133 16.15 7.68374C15.7124 7.24616 15.1189 7.00033 14.5001 7.00033ZM14.5001 15.167C17.6151 15.167 23.8334 16.7187 23.8334 19.8337V23.3337H5.16675V19.8337C5.16675 16.7187 11.3851 15.167 14.5001 15.167ZM14.5001 17.3837C11.0351 17.3837 7.38341 19.087 7.38341 19.8337V21.117H21.6167V19.8337C21.6167 19.087 17.9651 17.3837 14.5001 17.3837Z" fill="#522D80"/>
</svg>
