<svg width="62" height="62" viewBox="0 0 62 62" fill="none" xmlns="http://www.w3.org/2000/svg">
<path fill-rule="evenodd" clip-rule="evenodd" d="M28.4588 16.3544V12.1241C28.4588 10.9971 29.3735 10.0824 30.5005 10.0824C31.6254 10.0824 32.5421 10.9971 32.5421 12.1241V16.3544C35.576 16.7913 38.4119 18.2001 40.6047 20.3928C43.2854 23.0735 44.7921 26.7097 44.7921 30.4991V38.1839L46.4439 41.4873C47.234 43.0696 47.1503 44.9479 46.2193 46.4526C45.2903 47.9574 43.6467 48.8741 41.8787 48.8741H32.5421C32.5421 50.0011 31.6254 50.9157 30.5005 50.9157C29.3735 50.9157 28.4588 50.0011 28.4588 48.8741H19.1223C17.3521 48.8741 15.7086 47.9574 14.7797 46.4526C13.8487 44.9479 13.7649 43.0696 14.5571 41.4873L16.2088 38.1839V30.4991C16.2088 26.7097 17.7135 23.0735 20.3942 20.3928C22.589 18.2001 25.4228 16.7913 28.4588 16.3544V16.3544ZM30.5005 20.2907C27.7912 20.2907 25.1962 21.3667 23.2812 23.2818C21.3661 25.1948 20.2921 27.7918 20.2921 30.4991V38.6657C20.2921 38.9822 20.2166 39.2946 20.0757 39.5784C20.0757 39.5784 19.1672 41.3954 18.2076 43.3126C18.0504 43.629 18.0667 44.0067 18.2525 44.3069C18.4383 44.607 18.767 44.7907 19.1223 44.7907H41.8787C42.2319 44.7907 42.5606 44.607 42.7464 44.3069C42.9322 44.0067 42.9485 43.629 42.7913 43.3126C41.8317 41.3954 40.9232 39.5784 40.9232 39.5784C40.7823 39.2946 40.7088 38.9822 40.7088 38.6657V30.4991C40.7088 27.7918 39.6328 25.1948 37.7178 23.2818C35.8027 21.3667 33.2077 20.2907 30.5005 20.2907V20.2907Z" fill="#522D80"/>
<circle cx="42.7588" cy="18.7588" r="8.75876" fill="#F56600"/>
</svg>
