<svg width="25" height="25" viewBox="0 0 25 25" fill="none" xmlns="http://www.w3.org/2000/svg">
<path id="search" d="M23.8872 23.0842L18.0549 17.2518C19.6194 15.4531 20.5666 13.1063 20.5666 10.5414C20.5666 4.89525 15.9742 0.308105 10.3334 0.308105C4.68724 0.308105 0.100098 4.90057 0.100098 10.5414C0.100098 16.1822 4.69256 20.7746 10.3334 20.7746C12.8983 20.7746 15.2451 19.8274 17.0438 18.2629L22.8762 24.0952C23.0145 24.2336 23.2008 24.3081 23.3817 24.3081C23.5626 24.3081 23.7489 24.2389 23.8872 24.0952C24.164 23.8185 24.164 23.3609 23.8872 23.0842ZM1.53158 10.5414C1.53158 5.68815 5.48014 1.74491 10.328 1.74491C15.1813 1.74491 19.1245 5.69347 19.1245 10.5414C19.1245 15.3893 15.1813 19.3431 10.328 19.3431C5.48014 19.3431 1.53158 15.3946 1.53158 10.5414Z" fill="#522D80"/>
</svg>
